<svg version="1.1" xmlns="http://www.w3.org/2000/svg" xmlns:xlink="http://www.w3.org/1999/xlink" width="55.5425" height="63.74986" viewBox="0,0,55.5425,63.74986"><defs><linearGradient x1="221.15667" y1="204.24219" x2="254.14314" y2="170.98419" gradientUnits="userSpaceOnUse" id="color-1"><stop offset="0" stop-color="#00ff21"/><stop offset="1" stop-color="#00ffff"/></linearGradient><linearGradient x1="253.4098" y1="185.72533" x2="222.83577" y2="183.44905" gradientUnits="userSpaceOnUse" id="color-2"><stop offset="0" stop-color="#00ffff"/><stop offset="1" stop-color="#00ff21"/></linearGradient></defs><g transform="translate(-212.22875,-149.28448)"><g data-paper-data="{&quot;isPaintingLayer&quot;:true}" fill="none" fill-rule="nonzero" stroke-width="4" stroke-linecap="butt" stroke-linejoin="miter" stroke-miterlimit="10" stroke-dasharray="" stroke-dashoffset="0" style="mix-blend-mode: normal"><path d="M246.03857,157.11872c3.3652,0.42447 6.18673,2.05175 6.18673,2.05175c0,0 5.22115,-8.17055 7.60009,-9.88599c2.07124,-1.49356 7.15688,2.60095 5.68137,5.2283c-1.80892,3.22106 -5.94758,9.25896 -5.94758,9.25896c0,0 4.41235,2.3844 4.51147,5.02937c0.09913,2.64497 -4.7286,9.96426 -4.7286,9.96426c0,0 0.75994,2.07509 1.02633,3.13962c1.92381,7.6876 -0.1016,16.16427 -6.08948,22.20143c-9.10896,9.18394 -23.93829,9.24472 -33.12223,0.13576c-9.18394,-9.10896 -9.24472,-23.93829 -0.13576,-33.12224c2.83615,-2.8595 6.22686,-4.83456 9.82906,-5.92378c2.59031,-0.78325 7.97144,-0.97503 7.97144,-0.97503c0,0 3.21837,-4.60473 7.21716,-7.10242z" data-paper-data="{&quot;index&quot;:null}" stroke="url(#color-1)"/><path d="M236.48952,185.34703c0,0 -7.0542,6.87046 -11.53889,3.86981c-4.48469,-3.00065 -1.60158,-12.66195 -1.60158,-12.66195l13.32965,6.55706l17.24438,-4.28078c0,0 3.00519,9.28155 -3.55542,11.7336c-6.56061,2.45205 -13.87814,-5.21774 -13.87814,-5.21774z" data-paper-data="{&quot;index&quot;:null}" stroke="url(#color-2)"/></g></g></svg>